# xmcd
#
# Track frame offsets:
#	150
#	17970
#	34695
#	50157
#	62600
#	75390
#	88695
#	102182
#	116587
#
# Disc length: 1733 seconds
#
# Revision: 1
# Processed by: cddbd v1.5.2PL0 Copyright (c) Steve Scherf et al.
# Submitted via: audiograbber 1.83.01
#
DISCID=6c06c309
DTITLE=Various Artist - CDX 75 January 1994
DYEAR=1994
DGENRE=Country
TTITLE0=Trisha Yearwood - Better Your Heart Than Mine
TTITLE1=Radney Foster - Closing Time
TTITLE2=Linda Davis - Company Time
TTITLE3=Bob Woodruff - Hard Liquor, Cold Women, Warm Beer
TTITLE4=Rick Trevino - Honky Tonk Crowd
TTITLE5=Aaron Tippin - Honky-Tonk Superman
TTITLE6=Dwight Yoakam - Try Not To Look So Pretty
TTITLE7=Tracy Lawrence - We Don't Love Here Anymore
TTITLE8=Hank Flamingo - White Lightnin
EXTD=
EXTT0=
EXTT1=
EXTT2=
EXTT3=
EXTT4=
EXTT5=
EXTT6=
EXTT7=
EXTT8=
PLAYORDER=
